<svg id="Layer_1" data-name="Layer 1" xmlns="http://www.w3.org/2000/svg" viewBox="0 0 80 80"><defs><style>.cls-1{fill:#ffd271;}.cls-2{fill:#d70f64;}</style></defs><path class="cls-1" d="M39.5,46C28.87,46,20.25,29.66,20.25,19a19.25,19.25,0,0,1,38.5,0C58.75,29.66,50.13,46,39.5,46Z"/><path class="cls-2" d="M39.5,80A1.5,1.5,0,0,1,38,78.5V50a1.5,1.5,0,0,1,3,0V78.5A1.5,1.5,0,0,1,39.5,80Z"/><path class="cls-1" d="M43.5,52h-8A1.51,1.51,0,0,1,34,50.24l1.07-6A1.53,1.53,0,0,1,36.6,43h5.87A1.53,1.53,0,0,1,44,44.28l1,6a1.5,1.5,0,0,1-.34,1.22A1.47,1.47,0,0,1,43.5,52Z"/><path class="cls-2" d="M43.5,52h-8A1.51,1.51,0,0,1,34,50.24l1.07-6A1.53,1.53,0,0,1,36.6,43h5.87A1.53,1.53,0,0,1,44,44.28l1,6a1.5,1.5,0,0,1-.34,1.22A1.47,1.47,0,0,1,43.5,52Zm-6.17-3h4.36s0,0,0,0L41.23,46a0,0,0,0,0,0,0H37.86s0,0,0,0L37.3,49S37.31,49,37.33,49Z"/><path class="cls-2" d="M54,58.61a1.52,1.52,0,0,1-.51-.09L46,55.86a1.51,1.51,0,0,1-.8-2.16l2.86-5A1.52,1.52,0,0,1,49.92,48l5.54,1.95a1.53,1.53,0,0,1,1,1.71l-1,5.72a1.48,1.48,0,0,1-.72,1A1.44,1.44,0,0,1,54,58.61Zm-5.24-5,4,1.43s0,0,0,0l.47-2.68s0,0,0,0l-3.16-1.12,0,0L48.73,53.6A0,0,0,0,0,48.75,53.65Z"/><path class="cls-2" d="M39.5,46C28.87,46,20.25,29.66,20.25,19a19.25,19.25,0,0,1,38.5,0C58.75,29.66,50.13,46,39.5,46Zm0-43A16.15,16.15,0,0,0,23.25,19c0,9,7.59,24,16.25,24S55.75,28,55.75,19A16.15,16.15,0,0,0,39.5,3Z"/><path class="cls-2" d="M50.25,15a1.5,1.5,0,0,1-1.3-.75A11.56,11.56,0,0,0,39,8.53a1.5,1.5,0,0,1,0-3,14.55,14.55,0,0,1,12.54,7.22A1.5,1.5,0,0,1,51,14.8,1.59,1.59,0,0,1,50.25,15Z"/><path class="cls-2" d="M59.5,53A20.57,20.57,0,0,1,43,44.64a1.5,1.5,0,0,1,2.42-1.77A17.5,17.5,0,1,0,59.5,15a17.88,17.88,0,0,0-1.94.11,1.52,1.52,0,0,1-1.67-1.54,1.58,1.58,0,0,1,1.43-1.46C58,12,58.77,12,59.5,12a20.5,20.5,0,0,1,0,41Z"/><path class="cls-2" d="M56.91,24.26a1.5,1.5,0,0,1-.65-2.85A14.31,14.31,0,0,1,62.5,20a1.5,1.5,0,0,1,0,3,11.55,11.55,0,0,0-5,1.11A1.5,1.5,0,0,1,56.91,24.26Z"/><path class="cls-2" d="M54.5,72a1.44,1.44,0,0,1-.67-.16c-7.9-4-6.7-12.63-5-16.66a1.5,1.5,0,1,1,2.75,1.19c-.16.37-3.82,9.1,3.55,12.79A1.5,1.5,0,0,1,54.5,72Z"/><path class="cls-2" d="M25,58.61a1.44,1.44,0,0,1-.75-.21,1.48,1.48,0,0,1-.72-1l-1-5.72a1.53,1.53,0,0,1,1-1.71l5.56-2a1.5,1.5,0,0,1,1.8.67l2.88,5.05a1.51,1.51,0,0,1-.8,2.16l-7.46,2.66A1.52,1.52,0,0,1,25,58.61Zm.7-6.23.47,2.68s0,0,0,0l4-1.43a0,0,0,0,0,0,0l-1.34-2.35,0,0-3.16,1.12S25.71,52.37,25.71,52.38Z"/><path class="cls-2" d="M20.5,53a20.5,20.5,0,0,1,0-41c.73,0,1.46,0,2.18.11a1.58,1.58,0,0,1,1.43,1.46,1.52,1.52,0,0,1-1.67,1.54A17.88,17.88,0,0,0,20.5,15,17.5,17.5,0,1,0,34.6,42.87,1.5,1.5,0,0,1,37,44.64,20.57,20.57,0,0,1,20.5,53Z"/><path class="cls-2" d="M24.5,72a1.5,1.5,0,0,1-.67-2.84c7.37-3.69,3.71-12.42,3.55-12.79a1.5,1.5,0,0,1,2.75-1.19c1.74,4,2.94,12.71-5,16.66A1.44,1.44,0,0,1,24.5,72Z"/><circle class="cls-2" cx="51.5" cy="19.5" r="1.5"/></svg>