<svg xmlns="http://www.w3.org/2000/svg" viewBox="0 0 80 80"><defs><style>.cls-1{fill:#d70f64;}.cls-2{fill:#ffd271;}</style></defs><g id="Layer_2" data-name="Layer 2"><path class="cls-1" d="M72.17,71H7.83A5.83,5.83,0,0,1,2,65.17V25.83A5.83,5.83,0,0,1,7.83,20H72.17A5.83,5.83,0,0,1,78,25.83V65.17A5.83,5.83,0,0,1,72.17,71ZM7.83,23A2.83,2.83,0,0,0,5,25.83V65.17A2.83,2.83,0,0,0,7.83,68H72.17A2.83,2.83,0,0,0,75,65.17V25.83A2.83,2.83,0,0,0,72.17,23Z"/><path class="cls-1" d="M22.5,23h-12A1.5,1.5,0,0,1,9,21.5v-6A1.5,1.5,0,0,1,10.5,14h12A1.5,1.5,0,0,1,24,15.5v6A1.5,1.5,0,0,1,22.5,23ZM12,20h9V17H12Z"/><path class="cls-1" d="M69.5,23h-12A1.5,1.5,0,0,1,56,21.5v-6A1.5,1.5,0,0,1,57.5,14h12A1.5,1.5,0,0,1,71,15.5v6A1.5,1.5,0,0,1,69.5,23ZM59,20h9V17H59Z"/><path class="cls-1" d="M29.5,23A1.5,1.5,0,0,1,28,21.5v-6A6.47,6.47,0,0,1,34.46,9a1.5,1.5,0,0,1,0,3A3.46,3.46,0,0,0,31,15.46v6A1.5,1.5,0,0,1,29.5,23Z"/><path class="cls-1" d="M50.5,23A1.5,1.5,0,0,1,49,21.5v-6A3.46,3.46,0,0,0,45.54,12a1.5,1.5,0,0,1,0-3A6.47,6.47,0,0,1,52,15.46v6A1.5,1.5,0,0,1,50.5,23Z"/><circle class="cls-1" cx="40" cy="10.5" r="1.5"/><polygon class="cls-2" points="54.5 39.5 45.5 39.5 45.5 30.5 35.5 30.5 35.5 39.5 26.5 39.5 26.5 49.5 35.5 49.5 35.5 58.5 45.5 58.5 45.5 49.5 54.5 49.5 54.5 39.5"/><path class="cls-1" d="M45.5,60h-10A1.5,1.5,0,0,1,34,58.5V51H26.5A1.5,1.5,0,0,1,25,49.5v-10A1.5,1.5,0,0,1,26.5,38H34V30.5A1.5,1.5,0,0,1,35.5,29h10A1.5,1.5,0,0,1,47,30.5V38h7.5A1.5,1.5,0,0,1,56,39.5v10A1.5,1.5,0,0,1,54.5,51H47v7.5A1.5,1.5,0,0,1,45.5,60ZM37,57h7V49.5A1.5,1.5,0,0,1,45.5,48H53V41H45.5A1.5,1.5,0,0,1,44,39.5V32H37v7.5A1.5,1.5,0,0,1,35.5,41H28v7h7.5A1.5,1.5,0,0,1,37,49.5Z"/></g></svg>