<svg xmlns="http://www.w3.org/2000/svg" viewBox="0 0 80 80"><defs><style>.cls-1{fill:#d70f64;}.cls-2{fill:#ffd271;}</style></defs><g id="Layer_2" data-name="Layer 2"><path class="cls-1" d="M65.5,39A1.5,1.5,0,0,1,64,37.5V22a3,3,0,0,0-3-3H39.5a1.5,1.5,0,0,1,0-3H61a6,6,0,0,1,6,6V37.5A1.5,1.5,0,0,1,65.5,39Z"/><path class="cls-1" d="M63,64H6a6,6,0,0,1-6-6V22a6,6,0,0,1,6-6H27.5a1.5,1.5,0,0,1,0,3H6a3,3,0,0,0-3,3V58a3,3,0,0,0,3,3H63a1.5,1.5,0,0,1,0,3Z"/><circle class="cls-2" cx="33" cy="40" r="9.5"/><path class="cls-1" d="M33,51A11,11,0,1,1,44,40,11,11,0,0,1,33,51Zm0-19a8,8,0,1,0,8,8A8,8,0,0,0,33,32Z"/><path class="cls-1" d="M50.5,58h-35A1.5,1.5,0,0,1,14,56.5,6.51,6.51,0,0,0,7.5,50,1.5,1.5,0,0,1,6,48.5v-17A1.5,1.5,0,0,1,7.5,30,6.51,6.51,0,0,0,14,23.5,1.5,1.5,0,0,1,15.5,22h36A1.5,1.5,0,0,1,53,23.5,6.51,6.51,0,0,0,59.5,30,1.5,1.5,0,0,1,61,31.5v5a1.5,1.5,0,0,1-3,0V32.88A9.51,9.51,0,0,1,50.12,25H16.88A9.51,9.51,0,0,1,9,32.88V47.12A9.51,9.51,0,0,1,16.88,55H50.5a1.5,1.5,0,0,1,0,3Z"/><rect class="cls-2" x="48.5" y="38.5" width="30" height="24"/><path class="cls-1" d="M78.5,64h-30A1.5,1.5,0,0,1,47,62.5v-24A1.5,1.5,0,0,1,48.5,37h30A1.5,1.5,0,0,1,80,38.5v24A1.5,1.5,0,0,1,78.5,64ZM50,61H77V40H50Z"/><path class="cls-1" d="M78,48H49a1.5,1.5,0,0,1,0-3H78a1.5,1.5,0,0,1,0,3Z"/><path class="cls-1" d="M78,56H49a1.5,1.5,0,0,1,0-3H78a1.5,1.5,0,0,1,0,3Z"/><circle class="cls-1" cx="33.5" cy="17.5" r="1.5"/></g></svg>