<?xml version="1.0" encoding="UTF-8"?>
<svg width="896px" height="1088px" viewBox="0 0 896 1088" version="1.1" xmlns="http://www.w3.org/2000/svg" xmlns:xlink="http://www.w3.org/1999/xlink">
    <title>D191A592-7279-4CE0-9F1F-38AF6C95D1C9@1,5x</title>
    <defs>
        <polygon id="path-1" points="0 -9.26496051e-14 814.631468 -9.26496051e-14 814.631468 815.289817 0 815.289817"></polygon>
        <polygon id="path-3" points="0 -9.26496051e-14 814.631468 -9.26496051e-14 814.631468 815.289817 0 815.289817"></polygon>
    </defs>
    <g id="Landing-Page" stroke="none" stroke-width="1" fill="none" fill-rule="evenodd">
        <g id="Landing-Page---Pictures" transform="translate(733.000000, -2347.000000)">
            <g id="Shapes" transform="translate(-733.000000, -110.000000)">
                <g id="Left-middle" transform="translate(448.000000, 3001.000000) scale(-1, 1) translate(-448.000000, -3001.000000) translate(0.000000, 2457.000000)">
                    <g id="Group-3" transform="translate(81.368532, -0.000000)">
                        <mask id="mask-2" fill="white">
                            <use xlink:href="#path-1"></use>
                        </mask>
                        <g id="Clip-2"></g>
                        <path d="M309.053484,774.555414 L40.7016022,505.986329 C-13.5672007,451.673684 -13.5672007,363.615808 40.7016022,309.303162 L309.053484,40.7344842 C363.322286,-13.5781614 451.309487,-13.5781614 505.57829,40.7344842 L773.930171,309.303162 C828.198567,363.615808 828.198567,451.673684 773.930171,505.986329 L505.57829,774.555414 C451.309487,828.86806 363.322286,828.86806 309.053484,774.555414" id="Fill-1" fill="#F099C1" mask="url(#mask-2)"></path>
                    </g>
                    <g id="Group-3" transform="translate(0.000000, 272.710183)">
                        <mask id="mask-4" fill="white">
                            <use xlink:href="#path-3"></use>
                        </mask>
                        <g id="Clip-2"></g>
                        <path d="M309.053484,774.555414 L40.7016022,505.986329 C-13.5672007,451.673684 -13.5672007,363.615808 40.7016022,309.303162 L309.053484,40.7344842 C363.322286,-13.5781614 451.309487,-13.5781614 505.57829,40.7344842 L773.930171,309.303162 C828.198567,363.615808 828.198567,451.673684 773.930171,505.986329 L505.57829,774.555414 C451.309487,828.86806 363.322286,828.86806 309.053484,774.555414" id="Fill-1" fill="#FFD369" mask="url(#mask-4)"></path>
                    </g>
                </g>
            </g>
        </g>
    </g>
</svg>